%
M48
M72
T01C0.03346
T02C0.06299
T03C0.07480
T04C0.11024
%
T01
X97635Y98343
X107635Y98343
X117635Y98343
X127635Y98343
X127635Y118343
X117635Y118343
X107635Y118343
X97635Y118343
T02
X102831Y154406
X122831Y154406
X142831Y154406
T03
X57083Y55783
X76768Y55783
X76768Y85705
X57083Y85705
X57083Y130980
X76768Y130980
X76768Y160902
X57083Y160902
X168894Y160902
X188579Y160902
X188579Y130980
X168894Y130980
X168894Y85705
X188579Y85705
X188579Y55783
X168894Y55783
T04
X176965Y32555
X78540Y184130
M30
