G75*
%MOIN*%
%OFA0B0*%
%FSLAX25Y25*%
%IPPOS*%
%LPD*%
%AMOC8*
5,1,8,0,0,1.08239X$1,22.5*
%
%ADD10C,0.00000*%
D10*
X0036217Y0046335D02*
X0049012Y0046335D01*
X0049297Y0046332D01*
X0049583Y0046321D01*
X0049868Y0046304D01*
X0050152Y0046280D01*
X0050436Y0046249D01*
X0050719Y0046211D01*
X0051000Y0046166D01*
X0051281Y0046115D01*
X0051561Y0046057D01*
X0051839Y0045992D01*
X0052115Y0045920D01*
X0052389Y0045842D01*
X0052662Y0045757D01*
X0052932Y0045665D01*
X0053200Y0045567D01*
X0053466Y0045463D01*
X0053729Y0045352D01*
X0053989Y0045235D01*
X0054247Y0045112D01*
X0054501Y0044982D01*
X0054752Y0044846D01*
X0055000Y0044705D01*
X0055244Y0044557D01*
X0055485Y0044404D01*
X0055721Y0044244D01*
X0055954Y0044079D01*
X0056183Y0043909D01*
X0056408Y0043733D01*
X0056628Y0043551D01*
X0056844Y0043365D01*
X0057055Y0043173D01*
X0057262Y0042976D01*
X0057464Y0042774D01*
X0057661Y0042567D01*
X0057853Y0042356D01*
X0058039Y0042140D01*
X0058221Y0041920D01*
X0058397Y0041695D01*
X0058567Y0041466D01*
X0058732Y0041233D01*
X0058892Y0040997D01*
X0059045Y0040756D01*
X0059193Y0040512D01*
X0059334Y0040264D01*
X0059470Y0040013D01*
X0059600Y0039759D01*
X0059723Y0039501D01*
X0059840Y0039241D01*
X0059951Y0038978D01*
X0060055Y0038712D01*
X0060153Y0038444D01*
X0060245Y0038174D01*
X0060330Y0037901D01*
X0060408Y0037627D01*
X0060480Y0037351D01*
X0060545Y0037073D01*
X0060603Y0036793D01*
X0060654Y0036512D01*
X0060699Y0036231D01*
X0060737Y0035948D01*
X0060768Y0035664D01*
X0060792Y0035380D01*
X0060809Y0035095D01*
X0060820Y0034809D01*
X0060823Y0034524D01*
X0060823Y0021728D01*
X0209446Y0021728D01*
X0209446Y0170350D01*
X0196650Y0170350D01*
X0196365Y0170353D01*
X0196079Y0170364D01*
X0195794Y0170381D01*
X0195510Y0170405D01*
X0195226Y0170436D01*
X0194943Y0170474D01*
X0194662Y0170519D01*
X0194381Y0170570D01*
X0194101Y0170628D01*
X0193823Y0170693D01*
X0193547Y0170765D01*
X0193273Y0170843D01*
X0193000Y0170928D01*
X0192730Y0171020D01*
X0192462Y0171118D01*
X0192196Y0171222D01*
X0191933Y0171333D01*
X0191673Y0171450D01*
X0191415Y0171573D01*
X0191161Y0171703D01*
X0190910Y0171839D01*
X0190662Y0171980D01*
X0190418Y0172128D01*
X0190177Y0172281D01*
X0189941Y0172441D01*
X0189708Y0172606D01*
X0189479Y0172776D01*
X0189254Y0172952D01*
X0189034Y0173134D01*
X0188818Y0173320D01*
X0188607Y0173512D01*
X0188400Y0173709D01*
X0188198Y0173911D01*
X0188001Y0174118D01*
X0187809Y0174329D01*
X0187623Y0174545D01*
X0187441Y0174765D01*
X0187265Y0174990D01*
X0187095Y0175219D01*
X0186930Y0175452D01*
X0186770Y0175688D01*
X0186617Y0175929D01*
X0186469Y0176173D01*
X0186328Y0176421D01*
X0186192Y0176672D01*
X0186062Y0176926D01*
X0185939Y0177184D01*
X0185822Y0177444D01*
X0185711Y0177707D01*
X0185607Y0177973D01*
X0185509Y0178241D01*
X0185417Y0178511D01*
X0185332Y0178784D01*
X0185254Y0179058D01*
X0185182Y0179334D01*
X0185117Y0179612D01*
X0185059Y0179892D01*
X0185008Y0180173D01*
X0184963Y0180454D01*
X0184925Y0180737D01*
X0184894Y0181021D01*
X0184870Y0181305D01*
X0184853Y0181590D01*
X0184842Y0181876D01*
X0184839Y0182161D01*
X0184839Y0194957D01*
X0036217Y0194957D01*
X0036217Y0046335D01*
X0073028Y0184130D02*
X0073030Y0184278D01*
X0073036Y0184426D01*
X0073046Y0184574D01*
X0073060Y0184721D01*
X0073078Y0184868D01*
X0073099Y0185014D01*
X0073125Y0185160D01*
X0073155Y0185305D01*
X0073188Y0185449D01*
X0073226Y0185592D01*
X0073267Y0185734D01*
X0073312Y0185875D01*
X0073360Y0186015D01*
X0073413Y0186154D01*
X0073469Y0186291D01*
X0073529Y0186426D01*
X0073592Y0186560D01*
X0073659Y0186692D01*
X0073730Y0186822D01*
X0073804Y0186950D01*
X0073881Y0187076D01*
X0073962Y0187200D01*
X0074046Y0187322D01*
X0074133Y0187441D01*
X0074224Y0187558D01*
X0074318Y0187673D01*
X0074414Y0187785D01*
X0074514Y0187895D01*
X0074616Y0188001D01*
X0074722Y0188105D01*
X0074830Y0188206D01*
X0074941Y0188304D01*
X0075054Y0188400D01*
X0075170Y0188492D01*
X0075288Y0188581D01*
X0075409Y0188666D01*
X0075532Y0188749D01*
X0075657Y0188828D01*
X0075784Y0188904D01*
X0075913Y0188976D01*
X0076044Y0189045D01*
X0076177Y0189110D01*
X0076312Y0189171D01*
X0076448Y0189229D01*
X0076585Y0189284D01*
X0076724Y0189334D01*
X0076865Y0189381D01*
X0077006Y0189424D01*
X0077149Y0189464D01*
X0077293Y0189499D01*
X0077437Y0189531D01*
X0077583Y0189558D01*
X0077729Y0189582D01*
X0077876Y0189602D01*
X0078023Y0189618D01*
X0078170Y0189630D01*
X0078318Y0189638D01*
X0078466Y0189642D01*
X0078614Y0189642D01*
X0078762Y0189638D01*
X0078910Y0189630D01*
X0079057Y0189618D01*
X0079204Y0189602D01*
X0079351Y0189582D01*
X0079497Y0189558D01*
X0079643Y0189531D01*
X0079787Y0189499D01*
X0079931Y0189464D01*
X0080074Y0189424D01*
X0080215Y0189381D01*
X0080356Y0189334D01*
X0080495Y0189284D01*
X0080632Y0189229D01*
X0080768Y0189171D01*
X0080903Y0189110D01*
X0081036Y0189045D01*
X0081167Y0188976D01*
X0081296Y0188904D01*
X0081423Y0188828D01*
X0081548Y0188749D01*
X0081671Y0188666D01*
X0081792Y0188581D01*
X0081910Y0188492D01*
X0082026Y0188400D01*
X0082139Y0188304D01*
X0082250Y0188206D01*
X0082358Y0188105D01*
X0082464Y0188001D01*
X0082566Y0187895D01*
X0082666Y0187785D01*
X0082762Y0187673D01*
X0082856Y0187558D01*
X0082947Y0187441D01*
X0083034Y0187322D01*
X0083118Y0187200D01*
X0083199Y0187076D01*
X0083276Y0186950D01*
X0083350Y0186822D01*
X0083421Y0186692D01*
X0083488Y0186560D01*
X0083551Y0186426D01*
X0083611Y0186291D01*
X0083667Y0186154D01*
X0083720Y0186015D01*
X0083768Y0185875D01*
X0083813Y0185734D01*
X0083854Y0185592D01*
X0083892Y0185449D01*
X0083925Y0185305D01*
X0083955Y0185160D01*
X0083981Y0185014D01*
X0084002Y0184868D01*
X0084020Y0184721D01*
X0084034Y0184574D01*
X0084044Y0184426D01*
X0084050Y0184278D01*
X0084052Y0184130D01*
X0084050Y0183982D01*
X0084044Y0183834D01*
X0084034Y0183686D01*
X0084020Y0183539D01*
X0084002Y0183392D01*
X0083981Y0183246D01*
X0083955Y0183100D01*
X0083925Y0182955D01*
X0083892Y0182811D01*
X0083854Y0182668D01*
X0083813Y0182526D01*
X0083768Y0182385D01*
X0083720Y0182245D01*
X0083667Y0182106D01*
X0083611Y0181969D01*
X0083551Y0181834D01*
X0083488Y0181700D01*
X0083421Y0181568D01*
X0083350Y0181438D01*
X0083276Y0181310D01*
X0083199Y0181184D01*
X0083118Y0181060D01*
X0083034Y0180938D01*
X0082947Y0180819D01*
X0082856Y0180702D01*
X0082762Y0180587D01*
X0082666Y0180475D01*
X0082566Y0180365D01*
X0082464Y0180259D01*
X0082358Y0180155D01*
X0082250Y0180054D01*
X0082139Y0179956D01*
X0082026Y0179860D01*
X0081910Y0179768D01*
X0081792Y0179679D01*
X0081671Y0179594D01*
X0081548Y0179511D01*
X0081423Y0179432D01*
X0081296Y0179356D01*
X0081167Y0179284D01*
X0081036Y0179215D01*
X0080903Y0179150D01*
X0080768Y0179089D01*
X0080632Y0179031D01*
X0080495Y0178976D01*
X0080356Y0178926D01*
X0080215Y0178879D01*
X0080074Y0178836D01*
X0079931Y0178796D01*
X0079787Y0178761D01*
X0079643Y0178729D01*
X0079497Y0178702D01*
X0079351Y0178678D01*
X0079204Y0178658D01*
X0079057Y0178642D01*
X0078910Y0178630D01*
X0078762Y0178622D01*
X0078614Y0178618D01*
X0078466Y0178618D01*
X0078318Y0178622D01*
X0078170Y0178630D01*
X0078023Y0178642D01*
X0077876Y0178658D01*
X0077729Y0178678D01*
X0077583Y0178702D01*
X0077437Y0178729D01*
X0077293Y0178761D01*
X0077149Y0178796D01*
X0077006Y0178836D01*
X0076865Y0178879D01*
X0076724Y0178926D01*
X0076585Y0178976D01*
X0076448Y0179031D01*
X0076312Y0179089D01*
X0076177Y0179150D01*
X0076044Y0179215D01*
X0075913Y0179284D01*
X0075784Y0179356D01*
X0075657Y0179432D01*
X0075532Y0179511D01*
X0075409Y0179594D01*
X0075288Y0179679D01*
X0075170Y0179768D01*
X0075054Y0179860D01*
X0074941Y0179956D01*
X0074830Y0180054D01*
X0074722Y0180155D01*
X0074616Y0180259D01*
X0074514Y0180365D01*
X0074414Y0180475D01*
X0074318Y0180587D01*
X0074224Y0180702D01*
X0074133Y0180819D01*
X0074046Y0180938D01*
X0073962Y0181060D01*
X0073881Y0181184D01*
X0073804Y0181310D01*
X0073730Y0181438D01*
X0073659Y0181568D01*
X0073592Y0181700D01*
X0073529Y0181834D01*
X0073469Y0181969D01*
X0073413Y0182106D01*
X0073360Y0182245D01*
X0073312Y0182385D01*
X0073267Y0182526D01*
X0073226Y0182668D01*
X0073188Y0182811D01*
X0073155Y0182955D01*
X0073125Y0183100D01*
X0073099Y0183246D01*
X0073078Y0183392D01*
X0073060Y0183539D01*
X0073046Y0183686D01*
X0073036Y0183834D01*
X0073030Y0183982D01*
X0073028Y0184130D01*
X0171453Y0032555D02*
X0171455Y0032703D01*
X0171461Y0032851D01*
X0171471Y0032999D01*
X0171485Y0033146D01*
X0171503Y0033293D01*
X0171524Y0033439D01*
X0171550Y0033585D01*
X0171580Y0033730D01*
X0171613Y0033874D01*
X0171651Y0034017D01*
X0171692Y0034159D01*
X0171737Y0034300D01*
X0171785Y0034440D01*
X0171838Y0034579D01*
X0171894Y0034716D01*
X0171954Y0034851D01*
X0172017Y0034985D01*
X0172084Y0035117D01*
X0172155Y0035247D01*
X0172229Y0035375D01*
X0172306Y0035501D01*
X0172387Y0035625D01*
X0172471Y0035747D01*
X0172558Y0035866D01*
X0172649Y0035983D01*
X0172743Y0036098D01*
X0172839Y0036210D01*
X0172939Y0036320D01*
X0173041Y0036426D01*
X0173147Y0036530D01*
X0173255Y0036631D01*
X0173366Y0036729D01*
X0173479Y0036825D01*
X0173595Y0036917D01*
X0173713Y0037006D01*
X0173834Y0037091D01*
X0173957Y0037174D01*
X0174082Y0037253D01*
X0174209Y0037329D01*
X0174338Y0037401D01*
X0174469Y0037470D01*
X0174602Y0037535D01*
X0174737Y0037596D01*
X0174873Y0037654D01*
X0175010Y0037709D01*
X0175149Y0037759D01*
X0175290Y0037806D01*
X0175431Y0037849D01*
X0175574Y0037889D01*
X0175718Y0037924D01*
X0175862Y0037956D01*
X0176008Y0037983D01*
X0176154Y0038007D01*
X0176301Y0038027D01*
X0176448Y0038043D01*
X0176595Y0038055D01*
X0176743Y0038063D01*
X0176891Y0038067D01*
X0177039Y0038067D01*
X0177187Y0038063D01*
X0177335Y0038055D01*
X0177482Y0038043D01*
X0177629Y0038027D01*
X0177776Y0038007D01*
X0177922Y0037983D01*
X0178068Y0037956D01*
X0178212Y0037924D01*
X0178356Y0037889D01*
X0178499Y0037849D01*
X0178640Y0037806D01*
X0178781Y0037759D01*
X0178920Y0037709D01*
X0179057Y0037654D01*
X0179193Y0037596D01*
X0179328Y0037535D01*
X0179461Y0037470D01*
X0179592Y0037401D01*
X0179721Y0037329D01*
X0179848Y0037253D01*
X0179973Y0037174D01*
X0180096Y0037091D01*
X0180217Y0037006D01*
X0180335Y0036917D01*
X0180451Y0036825D01*
X0180564Y0036729D01*
X0180675Y0036631D01*
X0180783Y0036530D01*
X0180889Y0036426D01*
X0180991Y0036320D01*
X0181091Y0036210D01*
X0181187Y0036098D01*
X0181281Y0035983D01*
X0181372Y0035866D01*
X0181459Y0035747D01*
X0181543Y0035625D01*
X0181624Y0035501D01*
X0181701Y0035375D01*
X0181775Y0035247D01*
X0181846Y0035117D01*
X0181913Y0034985D01*
X0181976Y0034851D01*
X0182036Y0034716D01*
X0182092Y0034579D01*
X0182145Y0034440D01*
X0182193Y0034300D01*
X0182238Y0034159D01*
X0182279Y0034017D01*
X0182317Y0033874D01*
X0182350Y0033730D01*
X0182380Y0033585D01*
X0182406Y0033439D01*
X0182427Y0033293D01*
X0182445Y0033146D01*
X0182459Y0032999D01*
X0182469Y0032851D01*
X0182475Y0032703D01*
X0182477Y0032555D01*
X0182475Y0032407D01*
X0182469Y0032259D01*
X0182459Y0032111D01*
X0182445Y0031964D01*
X0182427Y0031817D01*
X0182406Y0031671D01*
X0182380Y0031525D01*
X0182350Y0031380D01*
X0182317Y0031236D01*
X0182279Y0031093D01*
X0182238Y0030951D01*
X0182193Y0030810D01*
X0182145Y0030670D01*
X0182092Y0030531D01*
X0182036Y0030394D01*
X0181976Y0030259D01*
X0181913Y0030125D01*
X0181846Y0029993D01*
X0181775Y0029863D01*
X0181701Y0029735D01*
X0181624Y0029609D01*
X0181543Y0029485D01*
X0181459Y0029363D01*
X0181372Y0029244D01*
X0181281Y0029127D01*
X0181187Y0029012D01*
X0181091Y0028900D01*
X0180991Y0028790D01*
X0180889Y0028684D01*
X0180783Y0028580D01*
X0180675Y0028479D01*
X0180564Y0028381D01*
X0180451Y0028285D01*
X0180335Y0028193D01*
X0180217Y0028104D01*
X0180096Y0028019D01*
X0179973Y0027936D01*
X0179848Y0027857D01*
X0179721Y0027781D01*
X0179592Y0027709D01*
X0179461Y0027640D01*
X0179328Y0027575D01*
X0179193Y0027514D01*
X0179057Y0027456D01*
X0178920Y0027401D01*
X0178781Y0027351D01*
X0178640Y0027304D01*
X0178499Y0027261D01*
X0178356Y0027221D01*
X0178212Y0027186D01*
X0178068Y0027154D01*
X0177922Y0027127D01*
X0177776Y0027103D01*
X0177629Y0027083D01*
X0177482Y0027067D01*
X0177335Y0027055D01*
X0177187Y0027047D01*
X0177039Y0027043D01*
X0176891Y0027043D01*
X0176743Y0027047D01*
X0176595Y0027055D01*
X0176448Y0027067D01*
X0176301Y0027083D01*
X0176154Y0027103D01*
X0176008Y0027127D01*
X0175862Y0027154D01*
X0175718Y0027186D01*
X0175574Y0027221D01*
X0175431Y0027261D01*
X0175290Y0027304D01*
X0175149Y0027351D01*
X0175010Y0027401D01*
X0174873Y0027456D01*
X0174737Y0027514D01*
X0174602Y0027575D01*
X0174469Y0027640D01*
X0174338Y0027709D01*
X0174209Y0027781D01*
X0174082Y0027857D01*
X0173957Y0027936D01*
X0173834Y0028019D01*
X0173713Y0028104D01*
X0173595Y0028193D01*
X0173479Y0028285D01*
X0173366Y0028381D01*
X0173255Y0028479D01*
X0173147Y0028580D01*
X0173041Y0028684D01*
X0172939Y0028790D01*
X0172839Y0028900D01*
X0172743Y0029012D01*
X0172649Y0029127D01*
X0172558Y0029244D01*
X0172471Y0029363D01*
X0172387Y0029485D01*
X0172306Y0029609D01*
X0172229Y0029735D01*
X0172155Y0029863D01*
X0172084Y0029993D01*
X0172017Y0030125D01*
X0171954Y0030259D01*
X0171894Y0030394D01*
X0171838Y0030531D01*
X0171785Y0030670D01*
X0171737Y0030810D01*
X0171692Y0030951D01*
X0171651Y0031093D01*
X0171613Y0031236D01*
X0171580Y0031380D01*
X0171550Y0031525D01*
X0171524Y0031671D01*
X0171503Y0031817D01*
X0171485Y0031964D01*
X0171471Y0032111D01*
X0171461Y0032259D01*
X0171455Y0032407D01*
X0171453Y0032555D01*
M02*
