G75*
%MOIN*%
%OFA0B0*%
%FSLAX25Y25*%
%IPPOS*%
%LPD*%
%AMOC8*
5,1,8,0,0,1.08239X$1,22.5*
%
%ADD10C,0.01200*%
%ADD11C,0.00787*%
%ADD12R,0.00787X0.00787*%
D10*
X0075006Y0106023D02*
X0075006Y0109363D01*
X0076119Y0110476D01*
X0080573Y0110476D01*
X0081686Y0109363D01*
X0081686Y0106023D01*
X0075006Y0106023D01*
X0075006Y0113273D02*
X0075006Y0117726D01*
X0075006Y0115500D02*
X0081686Y0115500D01*
X0079459Y0113273D01*
X0128962Y0161492D02*
X0128962Y0180826D01*
X0126568Y0177516D02*
X0126568Y0175289D01*
X0125454Y0174176D01*
X0121001Y0174176D01*
X0119888Y0175289D01*
X0119888Y0177516D01*
X0121001Y0178629D01*
X0123228Y0178629D01*
X0123228Y0176403D01*
X0125454Y0178629D02*
X0126568Y0177516D01*
X0126568Y0171569D02*
X0126568Y0169342D01*
X0126568Y0170456D02*
X0119888Y0170456D01*
X0119888Y0171569D02*
X0119888Y0169342D01*
X0121001Y0166545D02*
X0119888Y0165432D01*
X0119888Y0163205D01*
X0121001Y0162092D01*
X0123228Y0163205D02*
X0123228Y0165432D01*
X0122115Y0166545D01*
X0121001Y0166545D01*
X0123228Y0163205D02*
X0124341Y0162092D01*
X0125454Y0162092D01*
X0126568Y0163205D01*
X0126568Y0165432D01*
X0125454Y0166545D01*
X0139573Y0164319D02*
X0141800Y0166545D01*
X0146253Y0166545D01*
X0146253Y0162092D02*
X0141800Y0162092D01*
X0139573Y0164319D01*
X0139573Y0169342D02*
X0139573Y0172682D01*
X0140686Y0173796D01*
X0145140Y0173796D01*
X0146253Y0172682D01*
X0146253Y0169342D01*
X0139573Y0169342D01*
X0139573Y0176593D02*
X0139573Y0179933D01*
X0140686Y0181046D01*
X0145140Y0181046D01*
X0146253Y0179933D01*
X0146253Y0176593D01*
X0139573Y0176593D01*
X0142052Y0147118D02*
X0142052Y0140439D01*
X0144279Y0140439D02*
X0139825Y0140439D01*
X0141970Y0136882D02*
X0141970Y0130202D01*
X0139744Y0130202D02*
X0144197Y0130202D01*
X0146994Y0130202D02*
X0149220Y0132429D01*
X0148107Y0132429D02*
X0151447Y0132429D01*
X0151447Y0130202D02*
X0151447Y0136882D01*
X0148107Y0136882D01*
X0146994Y0135769D01*
X0146994Y0133542D01*
X0148107Y0132429D01*
X0144197Y0134656D02*
X0141970Y0136882D01*
X0147076Y0140439D02*
X0149302Y0142665D01*
X0148189Y0142665D02*
X0151529Y0142665D01*
X0151529Y0140439D02*
X0151529Y0147118D01*
X0148189Y0147118D01*
X0147076Y0146005D01*
X0147076Y0143778D01*
X0148189Y0142665D01*
X0144279Y0144892D02*
X0142052Y0147118D01*
X0154244Y0136882D02*
X0158697Y0136882D01*
X0156471Y0136882D02*
X0156471Y0130202D01*
X0106883Y0163205D02*
X0105769Y0162092D01*
X0101316Y0162092D01*
X0100203Y0163205D01*
X0100203Y0165432D01*
X0101316Y0166545D01*
X0103543Y0166545D01*
X0103543Y0164319D01*
X0105769Y0166545D02*
X0106883Y0165432D01*
X0106883Y0163205D01*
X0106883Y0169342D02*
X0100203Y0169342D01*
X0100203Y0173796D02*
X0106883Y0173796D01*
X0106883Y0169342D02*
X0100203Y0173796D01*
X0100203Y0176593D02*
X0100203Y0179933D01*
X0101316Y0181046D01*
X0105769Y0181046D01*
X0106883Y0179933D01*
X0106883Y0176593D01*
X0100203Y0176593D01*
D11*
X0090942Y0103224D02*
X0083068Y0103224D01*
X0083068Y0122516D01*
X0083068Y0122325D02*
X0090942Y0122325D01*
X0090942Y0122516D02*
X0090942Y0103224D01*
X0090942Y0122122D02*
X0083068Y0122122D01*
X0083068Y0123697D01*
X0090942Y0123697D01*
X0090942Y0122122D01*
X0090942Y0123111D02*
X0083068Y0123111D01*
X0126768Y0130783D02*
X0130115Y0130783D01*
X0126768Y0130783D02*
X0126768Y0136295D01*
X0126965Y0136295D01*
X0124996Y0137870D02*
X0124998Y0137918D01*
X0125004Y0137966D01*
X0125014Y0138013D01*
X0125027Y0138059D01*
X0125045Y0138104D01*
X0125065Y0138148D01*
X0125090Y0138190D01*
X0125118Y0138229D01*
X0125148Y0138266D01*
X0125182Y0138300D01*
X0125219Y0138332D01*
X0125257Y0138361D01*
X0125298Y0138386D01*
X0125341Y0138408D01*
X0125386Y0138426D01*
X0125432Y0138440D01*
X0125479Y0138451D01*
X0125527Y0138458D01*
X0125575Y0138461D01*
X0125623Y0138460D01*
X0125671Y0138455D01*
X0125719Y0138446D01*
X0125765Y0138434D01*
X0125810Y0138417D01*
X0125854Y0138397D01*
X0125896Y0138374D01*
X0125936Y0138347D01*
X0125974Y0138317D01*
X0126009Y0138284D01*
X0126041Y0138248D01*
X0126071Y0138210D01*
X0126097Y0138169D01*
X0126119Y0138126D01*
X0126139Y0138082D01*
X0126154Y0138037D01*
X0126166Y0137990D01*
X0126174Y0137942D01*
X0126178Y0137894D01*
X0126178Y0137846D01*
X0126174Y0137798D01*
X0126166Y0137750D01*
X0126154Y0137703D01*
X0126139Y0137658D01*
X0126119Y0137614D01*
X0126097Y0137571D01*
X0126071Y0137530D01*
X0126041Y0137492D01*
X0126009Y0137456D01*
X0125974Y0137423D01*
X0125936Y0137393D01*
X0125896Y0137366D01*
X0125854Y0137343D01*
X0125810Y0137323D01*
X0125765Y0137306D01*
X0125719Y0137294D01*
X0125671Y0137285D01*
X0125623Y0137280D01*
X0125575Y0137279D01*
X0125527Y0137282D01*
X0125479Y0137289D01*
X0125432Y0137300D01*
X0125386Y0137314D01*
X0125341Y0137332D01*
X0125298Y0137354D01*
X0125257Y0137379D01*
X0125219Y0137408D01*
X0125182Y0137440D01*
X0125148Y0137474D01*
X0125118Y0137511D01*
X0125090Y0137550D01*
X0125065Y0137592D01*
X0125045Y0137636D01*
X0125027Y0137681D01*
X0125014Y0137727D01*
X0125004Y0137774D01*
X0124998Y0137822D01*
X0124996Y0137870D01*
X0131296Y0136295D02*
X0134052Y0136295D01*
X0138383Y0136295D02*
X0138579Y0136295D01*
X0138579Y0130783D01*
X0134839Y0130783D01*
X0133461Y0142201D02*
X0131886Y0142201D01*
X0131886Y0145350D02*
X0133461Y0145350D01*
D12*
X0125587Y0137870D03*
M02*
